# xmcd
#
# Track frame offsets:
#	150
#	24017
#	47594
#	69683
#	92173
#	116077
#	134064
#	153769
#	172108
#	195375
#	215622
#	238982
#
# Disc length: 3454
#
# Revision: 4
# Processed by: cddbd v1.5.1PL0 Copyright (c) Steve Scherf et al.
# Submitted via: CDex 1.40Beta3
# Normalized: r3:TRMNUM
#
DISCID=a90d7c0c
DTITLE=王菲 - 寓言
DYEAR=1900
DGENRE=Blues
TTITLE0=寒武紀
TTITLE1=新房客
TTITLE2=香奈兒
TTITLE3=阿修羅
TTITLE4=彼岸花
TTITLE5=如果你是假的
TTITLE6=不愛我的我不愛
TTITLE7=你喜歡不如我喜歡
TTITLE8=再見螢火蟲
TTITLE9=笑忘書
TTITLE10=螢火蟲
TTITLE11=給自已的情書
EXTD=ID3G:   0
EXTT0=
EXTT1=
EXTT2=
EXTT3=
EXTT4=
EXTT5=
EXTT6=
EXTT7=
EXTT8=
EXTT9=
EXTT10=
EXTT11=
PLAYORDER=
